<svg width="6771" height="3299" viewBox="0 0 6771 3299" fill="none" xmlns="http://www.w3.org/2000/svg">
<path d="M1 569.33C951.296 952.656 1463.54 1458.22 1758.97 1871.8C2005.24 2216.61 2000.87 2357.66 2262.37 2614.91C2829.85 3173.14 3916.93 3558.1 4443.79 3078.37C4703.32 2842.06 4607.32 2542.59 4731.46 1975.67C4843.14 1465.69 5131.88 764.282 5938.03 2" stroke="white" stroke-width="5" stroke-miterlimit="10"/>
<path d="M2.90039 693.004C927.221 1022.44 1434.34 1498.05 1729.61 1885.11C1978.06 2210.89 1998.26 2341.16 2276.02 2593.99C2858.71 3124.38 3879.61 3493.64 4407.21 3046.02C4678.97 2815.48 4617.15 2521.14 4762.6 1955.88C4890.66 1458.23 5185.3 768.823 5977.55 13.377" stroke="white" stroke-width="5" stroke-miterlimit="10"/>
<path d="M4.80176 816.662C903.13 1092.23 1405.52 1538.01 1700.31 1898.43C1951.45 2205.47 1995.21 2324.67 2289.73 2573.07C2886.32 3076.23 3843.92 3430.03 4370.71 3013.69C4655.29 2788.75 4626.59 2499.97 4793.82 1936.11C4937.75 1450.92 5238.8 773.415 6017.2 24.8398" stroke="white" stroke-width="5" stroke-miterlimit="10"/>
<path d="M6.70215 940.337C879.037 1162.04 1377.2 1578.09 1671.01 1911.84C1925.16 2200.38 1991.66 2308.31 2303.5 2552.13C2912.83 3028.77 3809.77 3367.39 4334.25 2981.34C4632.24 2762.03 4635.6 2479.05 4825.09 1916.32C4984.21 1443.7 5292.34 778.008 6056.78 36.252" stroke="white" stroke-width="5" stroke-miterlimit="10"/>
<path d="M8.61035 1063.99C855.039 1231.79 1349.46 1618.16 1641.72 1925.07C1899.33 2195.57 1987.83 2292.1 2317.11 2531.21C2938.11 2982.01 3776.86 3305.78 4297.64 2948.99C4609.65 2735.24 4643.97 2458.27 4856.21 1896.53C5030.02 1436.52 5345.75 782.581 6096.26 47.748" stroke="white" stroke-width="5" stroke-miterlimit="10"/>
<path d="M10.5107 1187.65C830.878 1301.58 1322.35 1658.26 1612.42 1938.38C1874.04 2191.05 1983.37 2276.13 2330.82 2510.27C2962.54 2936.02 3745.3 3245.21 4261.11 2916.66C4587.7 2708.62 4651.77 2437.59 4887.41 1876.74C5075.32 1429.33 5399.23 787.174 6135.84 59.0742" stroke="white" stroke-width="5" stroke-miterlimit="10"/>
<path d="M12.4121 1311.31C806.787 1371.28 1296 1698.18 1583.12 1951.7C1849.33 2186.76 1978.63 2260.44 2344.51 2489.35C2986.19 2890.79 3714.87 3185.74 4224.58 2884.31C4566.28 2682.23 4659.2 2416.91 4918.61 1856.96C5120.09 1422.06 5452.77 791.765 6175.4 70.502" stroke="white" stroke-width="5" stroke-miterlimit="10"/>
<path d="M14.3789 1434.98C782.761 1441.13 1270.54 1737.92 1553.88 1965.01C1825.38 2182.62 1973.67 2245.09 2358.27 2468.43C3009.19 2846.33 3685.53 3127.34 4188.11 2851.96C4545.46 2656.17 4666.03 2396.19 4949.88 1837.17C5164.31 1414.71 5506.17 796.409 6214.98 81.9141" stroke="white" stroke-width="5" stroke-miterlimit="10"/>
<path d="M16.2129 1558.64C758.603 1510.92 1245.83 1777.27 1524.52 1978.34C1802.09 2178.54 1968.16 2230.21 2371.91 2447.49C3031.57 2802.61 3656.97 3070.04 4151.51 2819.63C4525.04 2630.54 4672.17 2375.31 4981.01 1817.38C5208.07 1407.21 5559.65 800.932 6254.65 93.3242" stroke="white" stroke-width="5" stroke-miterlimit="10"/>
<path d="M18.1143 1682.25C734.528 1580.66 1222.1 1816.06 1495.22 1991.6C1779.52 2174.32 1962.5 2215.51 2385.59 2426.52C3053.45 2759.57 3629.12 3013.74 4114.98 2787.23C4505.04 2605.38 4677.82 2354.16 5012.21 1797.54C5251.37 1399.46 5613.14 805.473 6294.12 104.686" stroke="white" stroke-width="5" stroke-miterlimit="10"/>
<path d="M20.0215 1805.97C710.529 1650.5 1199.3 1854.31 1465.94 2004.97C1757.87 2169.94 1956.65 2201.45 2399.31 2405.63C3075.05 2717.34 3601.94 2958.59 4078.46 2754.95C4485.51 2580.98 4682.92 2332.83 5043.42 1777.8C5294.25 1391.62 5666.62 810.116 6333.71 116.182" stroke="white" stroke-width="5" stroke-miterlimit="10"/>
<path d="M21.9229 1929.63C686.352 1720.27 1177.37 1891.68 1436.64 2018.28C1737.04 2164.98 1950.67 2187.81 2413 2384.71C3096.38 2675.72 3575.24 2904.36 4041.93 2722.6C4466.36 2557.31 4687.49 2311.1 5074.62 1758.03C5336.77 1383.48 5720.1 814.691 6373.27 127.576" stroke="white" stroke-width="5" stroke-miterlimit="10"/>
<path d="M23.8232 2053.3C662.26 1790.05 1156.19 1928.09 1407.34 2031.61C1716.99 2159.25 1944.39 2174.63 2426.7 2363.79C3117.54 2634.74 3548.89 2851.09 4005.41 2690.25C4447.47 2534.5 4691.57 2288.98 5105.82 1738.24C5378.97 1375.08 5773.57 819.284 6412.85 138.988" stroke="white" stroke-width="5" stroke-miterlimit="10"/>
<path d="M25.7236 2176.96C638.185 1859.84 1135.64 1963.44 1378.04 2044.93C1697.64 2152.37 1938.09 2161.95 2440.36 2342.85C3138.54 2594.32 3522.74 2798.62 3968.85 2657.92C4428.95 2512.71 4695.13 2266.39 5136.99 1718.45C5420.92 1366.4 5827.05 823.824 6452.41 150.451" stroke="white" stroke-width="5" stroke-miterlimit="10"/>
<path d="M27.625 2300.62C614.094 1929.61 1115.51 1997.64 1348.67 2058.24C1678.74 2144.01 1931.64 2149.75 2454.03 2321.93C3159.53 2554.46 3496.7 2747.17 3932.28 2625.57C4410.58 2492.04 4698.28 2243.29 5168.15 1698.61C5462.55 1357.37 5880.47 828.399 6491.92 161.76" stroke="white" stroke-width="5" stroke-miterlimit="10"/>
<path d="M29.5254 2424.29C590.087 1999.4 1095.55 2030.67 1319.44 2071.55C1660.24 2133.78 1925.29 2138.05 2467.79 2300.99C3180.57 2515.17 3470.75 2696.43 3895.82 2593.24C4392.45 2472.63 4701.12 2219.71 5199.42 1678.89C5504.17 1348.13 5934.01 833.041 6531.55 173.238" stroke="white" stroke-width="5" stroke-miterlimit="10"/>
<path d="M31.5137 2547.95C565.997 2069.19 1077.9 2124.53 1290.22 2084.88C1637.52 2020.01 1918.95 2126.84 2481.58 2280.07C3201.73 2476.24 3444.64 2646.45 3859.29 2560.89C4374.33 2454.65 4703.58 2195.43 5230.62 1659.1C5545.57 1338.59 5987.49 837.634 6571.13 184.719" stroke="white" stroke-width="5" stroke-miterlimit="10"/>
<path d="M33.334 2671.61C541.842 2138.97 1059.84 2144.58 1260.84 2098.2C1613.14 2016.91 1912.44 2116.1 2495.19 2259.15C3222.96 2437.86 3418.22 2597.21 3822.76 2528.54C4356.15 2438.1 4705.74 2170.64 5261.83 1639.27C5586.9 1328.68 6040.97 842.174 6610.7 196.027" stroke="white" stroke-width="5" stroke-miterlimit="10"/>
<path d="M35.2354 2795.28C517.751 2208.74 1039.42 2162.65 1231.54 2111.51C1590.18 2016.05 1906.05 2105.84 2508.9 2238.3C3244.31 2399.81 3391.48 2548.53 3786.23 2496.29C4337.83 2423.28 4707.66 2145.31 5293.03 1619.6C5628.16 1318.64 6094.46 846.852 6650.28 207.559" stroke="white" stroke-width="5" stroke-miterlimit="10"/>
<path d="M37.1357 2918.94C493.659 2278.53 1010.44 2153.04 1202.26 2124.82C1580.09 2069.36 1899.76 2096 2522.6 2217.35C3265.88 2362.08 3364.27 2500.35 3749.72 2463.91C4319.22 2410 4709.37 2119.17 5324.26 1599.73C5669.45 1308.1 6147.97 851.393 6689.86 218.885" stroke="white" stroke-width="5" stroke-miterlimit="10"/>
<path d="M39.0361 3042.6C469.567 2348.32 986.556 2182.14 1172.94 2138.15C1556.15 2047.74 1893.5 2086.61 2536.27 2196.41C3287.59 2324.69 3336.44 2452.7 3713.17 2431.56C4300.2 2398.63 4710.94 2092.64 5355.43 1579.99C5710.69 1297.4 6201.41 856.019 6729.42 230.348" stroke="white" stroke-width="5" stroke-miterlimit="10"/>
<path d="M40.9375 3166.27C445.493 2418.11 961.043 2211.26 1143.64 2151.47C1530.02 2024.88 1887.37 2077.63 2549.98 2175.45C3309.56 2287.58 3307.96 2405.43 3676.66 2399.19C4280.64 2388.91 4712.4 2065.4 5386.65 1560.18C5752 1286.45 6254.89 860.56 6769 241.725" stroke="white" stroke-width="5" stroke-miterlimit="10"/>
</svg>
